<mxfile host="app.diagrams.net" agent="Mozilla/5.0 (Windows NT 10.0; Win64; x64) AppleWebKit/537.36 (KHTML, like Gecko) Chrome/134.0.0.0 Safari/537.36" version="26.0.10">
  <diagram name="Page-1" id="b5b7bab2-c9e2-2cf4-8b2a-24fd1a2a6d21">
    <mxGraphModel dx="3790" dy="1629" grid="1" gridSize="10" guides="1" tooltips="1" connect="1" arrows="1" fold="1" page="1" pageScale="1" pageWidth="827" pageHeight="1169" background="none" math="0" shadow="0">
      <root>
        <mxCell id="0" />
        <mxCell id="1" parent="0" />
        <mxCell id="WaQflnwVFew0q5h23o7o-113" value="" style="shape=folder;fontStyle=1;spacingTop=10;tabWidth=194;tabHeight=22;tabPosition=left;html=1;rounded=0;shadow=0;comic=0;labelBackgroundColor=none;strokeWidth=1;fillColor=none;fontFamily=Verdana;fontSize=10;align=center;movable=1;resizable=1;rotatable=1;deletable=1;editable=1;locked=0;connectable=1;" vertex="1" parent="1">
          <mxGeometry x="-270" y="580" width="390.5" height="310" as="geometry" />
        </mxCell>
        <mxCell id="WaQflnwVFew0q5h23o7o-195" value="" style="shape=folder;fontStyle=1;spacingTop=10;tabWidth=194;tabHeight=22;tabPosition=left;html=1;rounded=0;shadow=0;comic=0;labelBackgroundColor=none;strokeWidth=1;fillColor=none;fontFamily=Verdana;fontSize=10;align=center;movable=0;resizable=0;rotatable=0;deletable=0;editable=0;locked=1;connectable=0;" vertex="1" parent="1">
          <mxGeometry x="930" y="280" width="750" height="410" as="geometry" />
        </mxCell>
        <mxCell id="WaQflnwVFew0q5h23o7o-71" value="" style="shape=folder;fontStyle=1;spacingTop=10;tabWidth=194;tabHeight=22;tabPosition=left;html=1;rounded=0;shadow=0;comic=0;labelBackgroundColor=none;strokeWidth=1;fillColor=none;fontFamily=Verdana;fontSize=10;align=center;movable=1;resizable=1;rotatable=1;deletable=1;editable=1;locked=0;connectable=1;" vertex="1" parent="1">
          <mxGeometry x="149" y="480" width="681" height="270" as="geometry" />
        </mxCell>
        <mxCell id="6e0c8c40b5770093-73" value="Editor" style="text;html=1;align=left;verticalAlign=top;spacingTop=-4;fontSize=10;fontFamily=Verdana" parent="1" vertex="1">
          <mxGeometry x="-290.5" y="80" width="130" height="20" as="geometry" />
        </mxCell>
        <mxCell id="B_j9U9ZkKT3MH9YH2jLF-1" value="RTUWebSocketBehavior" style="swimlane;fontStyle=1;align=center;verticalAlign=top;childLayout=stackLayout;horizontal=1;startSize=26;horizontalStack=0;resizeParent=1;resizeParentMax=0;resizeLast=0;collapsible=1;marginBottom=0;whiteSpace=wrap;html=1;" parent="1" vertex="1">
          <mxGeometry x="440" y="138.25" width="210" height="114" as="geometry" />
        </mxCell>
        <mxCell id="B_j9U9ZkKT3MH9YH2jLF-2" value="+ SceneGameObjectStore&lt;div&gt;+ JsonSerializerSettings&lt;br&gt;&lt;div&gt;+ Bool IsConnected&lt;/div&gt;&lt;/div&gt;" style="text;strokeColor=none;fillColor=none;align=left;verticalAlign=top;spacingLeft=4;spacingRight=4;overflow=hidden;rotatable=0;points=[[0,0.5],[1,0.5]];portConstraint=eastwest;whiteSpace=wrap;html=1;" parent="B_j9U9ZkKT3MH9YH2jLF-1" vertex="1">
          <mxGeometry y="26" width="210" height="44" as="geometry" />
        </mxCell>
        <mxCell id="B_j9U9ZkKT3MH9YH2jLF-3" value="" style="line;strokeWidth=1;fillColor=none;align=left;verticalAlign=middle;spacingTop=-1;spacingLeft=3;spacingRight=3;rotatable=0;labelPosition=right;points=[];portConstraint=eastwest;strokeColor=inherit;" parent="B_j9U9ZkKT3MH9YH2jLF-1" vertex="1">
          <mxGeometry y="70" width="210" height="18" as="geometry" />
        </mxCell>
        <mxCell id="B_j9U9ZkKT3MH9YH2jLF-4" value="+ SendPayloadToGame()" style="text;strokeColor=none;fillColor=none;align=left;verticalAlign=top;spacingLeft=4;spacingRight=4;overflow=hidden;rotatable=0;points=[[0,0.5],[1,0.5]];portConstraint=eastwest;whiteSpace=wrap;html=1;" parent="B_j9U9ZkKT3MH9YH2jLF-1" vertex="1">
          <mxGeometry y="88" width="210" height="26" as="geometry" />
        </mxCell>
        <mxCell id="B_j9U9ZkKT3MH9YH2jLF-9" value="RealTimeUpdateRuntime" style="swimlane;fontStyle=1;align=center;verticalAlign=top;childLayout=stackLayout;horizontal=1;startSize=26;horizontalStack=0;resizeParent=1;resizeParentMax=0;resizeLast=0;collapsible=1;marginBottom=0;whiteSpace=wrap;html=1;" parent="1" vertex="1">
          <mxGeometry x="190" y="138.25" width="210" height="106" as="geometry" />
        </mxCell>
        <mxCell id="B_j9U9ZkKT3MH9YH2jLF-11" value="" style="line;strokeWidth=1;fillColor=none;align=left;verticalAlign=middle;spacingTop=-1;spacingLeft=3;spacingRight=3;rotatable=0;labelPosition=right;points=[];portConstraint=eastwest;strokeColor=inherit;" parent="B_j9U9ZkKT3MH9YH2jLF-9" vertex="1">
          <mxGeometry y="26" width="210" height="18" as="geometry" />
        </mxCell>
        <mxCell id="B_j9U9ZkKT3MH9YH2jLF-12" value="+ StartServer()&lt;div&gt;+&amp;nbsp;Enqueue()&lt;/div&gt;" style="text;strokeColor=none;fillColor=none;align=left;verticalAlign=top;spacingLeft=4;spacingRight=4;overflow=hidden;rotatable=0;points=[[0,0.5],[1,0.5]];portConstraint=eastwest;whiteSpace=wrap;html=1;" parent="B_j9U9ZkKT3MH9YH2jLF-9" vertex="1">
          <mxGeometry y="44" width="210" height="62" as="geometry" />
        </mxCell>
        <mxCell id="YNcN27YD7fx48CAJPcOb-6" value="" style="shape=folder;fontStyle=1;spacingTop=10;tabWidth=194;tabHeight=22;tabPosition=left;html=1;rounded=0;shadow=0;comic=0;labelBackgroundColor=none;strokeWidth=1;fillColor=none;fontFamily=Verdana;fontSize=10;align=center;" parent="1" vertex="1">
          <mxGeometry x="-290" y="230" width="430" height="310" as="geometry" />
        </mxCell>
        <mxCell id="WaQflnwVFew0q5h23o7o-1" value="" style="endArrow=classic;html=1;rounded=0;exitX=0.992;exitY=0.2;exitDx=0;exitDy=0;exitPerimeter=0;entryX=0.005;entryY=0.691;entryDx=0;entryDy=0;entryPerimeter=0;" edge="1" parent="1" source="B_j9U9ZkKT3MH9YH2jLF-12" target="B_j9U9ZkKT3MH9YH2jLF-2">
          <mxGeometry width="50" height="50" relative="1" as="geometry">
            <mxPoint x="720" y="440" as="sourcePoint" />
            <mxPoint x="770" y="390" as="targetPoint" />
          </mxGeometry>
        </mxCell>
        <mxCell id="WaQflnwVFew0q5h23o7o-2" value="" style="endArrow=classic;html=1;rounded=0;exitX=0.986;exitY=0.691;exitDx=0;exitDy=0;exitPerimeter=0;entryX=0.005;entryY=0.136;entryDx=0;entryDy=0;entryPerimeter=0;" edge="1" parent="1" source="B_j9U9ZkKT3MH9YH2jLF-2" target="WaQflnwVFew0q5h23o7o-5">
          <mxGeometry width="50" height="50" relative="1" as="geometry">
            <mxPoint x="720" y="440" as="sourcePoint" />
            <mxPoint x="720" y="200" as="targetPoint" />
          </mxGeometry>
        </mxCell>
        <mxCell id="WaQflnwVFew0q5h23o7o-3" value="JSONSettingsCreator" style="swimlane;fontStyle=1;align=center;verticalAlign=top;childLayout=stackLayout;horizontal=1;startSize=26;horizontalStack=0;resizeParent=1;resizeParentMax=0;resizeLast=0;collapsible=1;marginBottom=0;whiteSpace=wrap;html=1;" vertex="1" parent="1">
          <mxGeometry x="740" y="142.25" width="210" height="106" as="geometry" />
        </mxCell>
        <mxCell id="WaQflnwVFew0q5h23o7o-4" value="" style="line;strokeWidth=1;fillColor=none;align=left;verticalAlign=middle;spacingTop=-1;spacingLeft=3;spacingRight=3;rotatable=0;labelPosition=right;points=[];portConstraint=eastwest;strokeColor=inherit;" vertex="1" parent="WaQflnwVFew0q5h23o7o-3">
          <mxGeometry y="26" width="210" height="18" as="geometry" />
        </mxCell>
        <mxCell id="WaQflnwVFew0q5h23o7o-5" value="+ Create()" style="text;strokeColor=none;fillColor=none;align=left;verticalAlign=top;spacingLeft=4;spacingRight=4;overflow=hidden;rotatable=0;points=[[0,0.5],[1,0.5]];portConstraint=eastwest;whiteSpace=wrap;html=1;" vertex="1" parent="WaQflnwVFew0q5h23o7o-3">
          <mxGeometry y="44" width="210" height="62" as="geometry" />
        </mxCell>
        <mxCell id="WaQflnwVFew0q5h23o7o-7" value="" style="endArrow=diamondThin;endFill=0;endSize=24;html=1;rounded=0;entryX=0.997;entryY=0.461;entryDx=0;entryDy=0;entryPerimeter=0;" edge="1" parent="1" source="WaQflnwVFew0q5h23o7o-10" target="WaQflnwVFew0q5h23o7o-5">
          <mxGeometry width="160" relative="1" as="geometry">
            <mxPoint x="932" y="274" as="sourcePoint" />
            <mxPoint x="934" y="380" as="targetPoint" />
          </mxGeometry>
        </mxCell>
        <mxCell id="WaQflnwVFew0q5h23o7o-8" value="JSONCustomConverterAttribute" style="swimlane;fontStyle=1;align=center;verticalAlign=top;childLayout=stackLayout;horizontal=1;startSize=26;horizontalStack=0;resizeParent=1;resizeParentMax=0;resizeLast=0;collapsible=1;marginBottom=0;whiteSpace=wrap;html=1;" vertex="1" parent="1">
          <mxGeometry x="1000" y="142.25" width="210" height="106" as="geometry" />
        </mxCell>
        <mxCell id="WaQflnwVFew0q5h23o7o-9" value="" style="line;strokeWidth=1;fillColor=none;align=left;verticalAlign=middle;spacingTop=-1;spacingLeft=3;spacingRight=3;rotatable=0;labelPosition=right;points=[];portConstraint=eastwest;strokeColor=inherit;" vertex="1" parent="WaQflnwVFew0q5h23o7o-8">
          <mxGeometry y="26" width="210" height="18" as="geometry" />
        </mxCell>
        <mxCell id="WaQflnwVFew0q5h23o7o-10" value="+ Create()" style="text;strokeColor=none;fillColor=none;align=left;verticalAlign=top;spacingLeft=4;spacingRight=4;overflow=hidden;rotatable=0;points=[[0,0.5],[1,0.5]];portConstraint=eastwest;whiteSpace=wrap;html=1;" vertex="1" parent="WaQflnwVFew0q5h23o7o-8">
          <mxGeometry y="44" width="210" height="62" as="geometry" />
        </mxCell>
        <mxCell id="WaQflnwVFew0q5h23o7o-11" value="«interface»&lt;br&gt;&lt;b&gt;IRTUEditorProcessor&lt;/b&gt;" style="html=1;whiteSpace=wrap;" vertex="1" parent="1">
          <mxGeometry x="481" y="310" width="128" height="50" as="geometry" />
        </mxCell>
        <mxCell id="WaQflnwVFew0q5h23o7o-12" value="" style="endArrow=diamondThin;endFill=0;endSize=24;html=1;rounded=0;entryX=0.471;entryY=0.97;entryDx=0;entryDy=0;entryPerimeter=0;exitX=0.446;exitY=-0.012;exitDx=0;exitDy=0;exitPerimeter=0;" edge="1" parent="1" target="B_j9U9ZkKT3MH9YH2jLF-4" source="WaQflnwVFew0q5h23o7o-11">
          <mxGeometry width="160" relative="1" as="geometry">
            <mxPoint x="610" y="290" as="sourcePoint" />
            <mxPoint x="545" y="320" as="targetPoint" />
          </mxGeometry>
        </mxCell>
        <mxCell id="WaQflnwVFew0q5h23o7o-15" value="" style="endArrow=block;dashed=1;endFill=0;endSize=12;html=1;rounded=0;entryX=0.5;entryY=0;entryDx=0;entryDy=0;exitX=0.5;exitY=1;exitDx=0;exitDy=0;" edge="1" parent="1" source="WaQflnwVFew0q5h23o7o-11" target="WaQflnwVFew0q5h23o7o-16">
          <mxGeometry width="160" relative="1" as="geometry">
            <mxPoint x="527.7010676156578" y="323.35" as="sourcePoint" />
            <mxPoint x="538.344" y="400" as="targetPoint" />
          </mxGeometry>
        </mxCell>
        <mxCell id="WaQflnwVFew0q5h23o7o-16" value="RTUCommandHandlerBase" style="swimlane;fontStyle=1;align=center;verticalAlign=top;childLayout=stackLayout;horizontal=1;startSize=26;horizontalStack=0;resizeParent=1;resizeParentMax=0;resizeLast=0;collapsible=1;marginBottom=0;whiteSpace=wrap;html=1;" vertex="1" parent="1">
          <mxGeometry x="450" y="390" width="190" height="70" as="geometry" />
        </mxCell>
        <mxCell id="WaQflnwVFew0q5h23o7o-17" value="" style="line;strokeWidth=1;fillColor=none;align=left;verticalAlign=middle;spacingTop=-1;spacingLeft=3;spacingRight=3;rotatable=0;labelPosition=right;points=[];portConstraint=eastwest;strokeColor=inherit;" vertex="1" parent="WaQflnwVFew0q5h23o7o-16">
          <mxGeometry y="26" width="190" height="18" as="geometry" />
        </mxCell>
        <mxCell id="WaQflnwVFew0q5h23o7o-18" value="+ Process()" style="text;strokeColor=none;fillColor=none;align=left;verticalAlign=top;spacingLeft=4;spacingRight=4;overflow=hidden;rotatable=0;points=[[0,0.5],[1,0.5]];portConstraint=eastwest;whiteSpace=wrap;html=1;" vertex="1" parent="WaQflnwVFew0q5h23o7o-16">
          <mxGeometry y="44" width="190" height="26" as="geometry" />
        </mxCell>
        <mxCell id="WaQflnwVFew0q5h23o7o-19" value="AssetUpdateChangeHandler" style="swimlane;fontStyle=1;align=center;verticalAlign=top;childLayout=stackLayout;horizontal=1;startSize=26;horizontalStack=0;resizeParent=1;resizeParentMax=0;resizeLast=0;collapsible=1;marginBottom=0;whiteSpace=wrap;html=1;" vertex="1" parent="1">
          <mxGeometry x="220" y="530" width="210" height="90" as="geometry" />
        </mxCell>
        <mxCell id="WaQflnwVFew0q5h23o7o-20" value="" style="line;strokeWidth=1;fillColor=none;align=left;verticalAlign=middle;spacingTop=-1;spacingLeft=3;spacingRight=3;rotatable=0;labelPosition=right;points=[];portConstraint=eastwest;strokeColor=inherit;" vertex="1" parent="WaQflnwVFew0q5h23o7o-19">
          <mxGeometry y="26" width="210" height="18" as="geometry" />
        </mxCell>
        <mxCell id="WaQflnwVFew0q5h23o7o-21" value="+ Process()" style="text;strokeColor=none;fillColor=none;align=left;verticalAlign=top;spacingLeft=4;spacingRight=4;overflow=hidden;rotatable=0;points=[[0,0.5],[1,0.5]];portConstraint=eastwest;whiteSpace=wrap;html=1;" vertex="1" parent="WaQflnwVFew0q5h23o7o-19">
          <mxGeometry y="44" width="210" height="46" as="geometry" />
        </mxCell>
        <mxCell id="WaQflnwVFew0q5h23o7o-22" value="CreateGameObjectChangeHandler" style="swimlane;fontStyle=1;align=center;verticalAlign=top;childLayout=stackLayout;horizontal=1;startSize=26;horizontalStack=0;resizeParent=1;resizeParentMax=0;resizeLast=0;collapsible=1;marginBottom=0;whiteSpace=wrap;html=1;" vertex="1" parent="1">
          <mxGeometry x="470" y="530" width="210" height="90" as="geometry" />
        </mxCell>
        <mxCell id="WaQflnwVFew0q5h23o7o-23" value="" style="line;strokeWidth=1;fillColor=none;align=left;verticalAlign=middle;spacingTop=-1;spacingLeft=3;spacingRight=3;rotatable=0;labelPosition=right;points=[];portConstraint=eastwest;strokeColor=inherit;" vertex="1" parent="WaQflnwVFew0q5h23o7o-22">
          <mxGeometry y="26" width="210" height="18" as="geometry" />
        </mxCell>
        <mxCell id="WaQflnwVFew0q5h23o7o-24" value="+ Process()" style="text;strokeColor=none;fillColor=none;align=left;verticalAlign=top;spacingLeft=4;spacingRight=4;overflow=hidden;rotatable=0;points=[[0,0.5],[1,0.5]];portConstraint=eastwest;whiteSpace=wrap;html=1;" vertex="1" parent="WaQflnwVFew0q5h23o7o-22">
          <mxGeometry y="44" width="210" height="46" as="geometry" />
        </mxCell>
        <mxCell id="WaQflnwVFew0q5h23o7o-37" value="DestroyGameObjectChangeHandler" style="swimlane;fontStyle=1;align=center;verticalAlign=top;childLayout=stackLayout;horizontal=1;startSize=26;horizontalStack=0;resizeParent=1;resizeParentMax=0;resizeLast=0;collapsible=1;marginBottom=0;whiteSpace=wrap;html=1;" vertex="1" parent="1">
          <mxGeometry x="490" y="550" width="210" height="90" as="geometry" />
        </mxCell>
        <mxCell id="WaQflnwVFew0q5h23o7o-38" value="" style="line;strokeWidth=1;fillColor=none;align=left;verticalAlign=middle;spacingTop=-1;spacingLeft=3;spacingRight=3;rotatable=0;labelPosition=right;points=[];portConstraint=eastwest;strokeColor=inherit;" vertex="1" parent="WaQflnwVFew0q5h23o7o-37">
          <mxGeometry y="26" width="210" height="18" as="geometry" />
        </mxCell>
        <mxCell id="WaQflnwVFew0q5h23o7o-39" value="+ Process()" style="text;strokeColor=none;fillColor=none;align=left;verticalAlign=top;spacingLeft=4;spacingRight=4;overflow=hidden;rotatable=0;points=[[0,0.5],[1,0.5]];portConstraint=eastwest;whiteSpace=wrap;html=1;" vertex="1" parent="WaQflnwVFew0q5h23o7o-37">
          <mxGeometry y="44" width="210" height="46" as="geometry" />
        </mxCell>
        <mxCell id="WaQflnwVFew0q5h23o7o-43" value="GameObjectPropertyChangeHandler" style="swimlane;fontStyle=1;align=center;verticalAlign=top;childLayout=stackLayout;horizontal=1;startSize=26;horizontalStack=0;resizeParent=1;resizeParentMax=0;resizeLast=0;collapsible=1;marginBottom=0;whiteSpace=wrap;html=1;" vertex="1" parent="1">
          <mxGeometry x="510" y="570" width="210" height="90" as="geometry" />
        </mxCell>
        <mxCell id="WaQflnwVFew0q5h23o7o-44" value="" style="line;strokeWidth=1;fillColor=none;align=left;verticalAlign=middle;spacingTop=-1;spacingLeft=3;spacingRight=3;rotatable=0;labelPosition=right;points=[];portConstraint=eastwest;strokeColor=inherit;" vertex="1" parent="WaQflnwVFew0q5h23o7o-43">
          <mxGeometry y="26" width="210" height="18" as="geometry" />
        </mxCell>
        <mxCell id="WaQflnwVFew0q5h23o7o-45" value="+ Process()" style="text;strokeColor=none;fillColor=none;align=left;verticalAlign=top;spacingLeft=4;spacingRight=4;overflow=hidden;rotatable=0;points=[[0,0.5],[1,0.5]];portConstraint=eastwest;whiteSpace=wrap;html=1;" vertex="1" parent="WaQflnwVFew0q5h23o7o-43">
          <mxGeometry y="44" width="210" height="46" as="geometry" />
        </mxCell>
        <mxCell id="WaQflnwVFew0q5h23o7o-49" value="GameObjectStructureChangeHandler" style="swimlane;fontStyle=1;align=center;verticalAlign=top;childLayout=stackLayout;horizontal=1;startSize=26;horizontalStack=0;resizeParent=1;resizeParentMax=0;resizeLast=0;collapsible=1;marginBottom=0;whiteSpace=wrap;html=1;" vertex="1" parent="1">
          <mxGeometry x="530" y="590" width="210" height="90" as="geometry" />
        </mxCell>
        <mxCell id="WaQflnwVFew0q5h23o7o-50" value="" style="line;strokeWidth=1;fillColor=none;align=left;verticalAlign=middle;spacingTop=-1;spacingLeft=3;spacingRight=3;rotatable=0;labelPosition=right;points=[];portConstraint=eastwest;strokeColor=inherit;" vertex="1" parent="WaQflnwVFew0q5h23o7o-49">
          <mxGeometry y="26" width="210" height="18" as="geometry" />
        </mxCell>
        <mxCell id="WaQflnwVFew0q5h23o7o-51" value="+ Process()" style="text;strokeColor=none;fillColor=none;align=left;verticalAlign=top;spacingLeft=4;spacingRight=4;overflow=hidden;rotatable=0;points=[[0,0.5],[1,0.5]];portConstraint=eastwest;whiteSpace=wrap;html=1;" vertex="1" parent="WaQflnwVFew0q5h23o7o-49">
          <mxGeometry y="44" width="210" height="46" as="geometry" />
        </mxCell>
        <mxCell id="WaQflnwVFew0q5h23o7o-55" value="PropertyChangeHandler" style="swimlane;fontStyle=1;align=center;verticalAlign=top;childLayout=stackLayout;horizontal=1;startSize=26;horizontalStack=0;resizeParent=1;resizeParentMax=0;resizeLast=0;collapsible=1;marginBottom=0;whiteSpace=wrap;html=1;" vertex="1" parent="1">
          <mxGeometry x="550" y="610" width="210" height="90" as="geometry" />
        </mxCell>
        <mxCell id="WaQflnwVFew0q5h23o7o-56" value="" style="line;strokeWidth=1;fillColor=none;align=left;verticalAlign=middle;spacingTop=-1;spacingLeft=3;spacingRight=3;rotatable=0;labelPosition=right;points=[];portConstraint=eastwest;strokeColor=inherit;" vertex="1" parent="WaQflnwVFew0q5h23o7o-55">
          <mxGeometry y="26" width="210" height="18" as="geometry" />
        </mxCell>
        <mxCell id="WaQflnwVFew0q5h23o7o-57" value="+ Process()" style="text;strokeColor=none;fillColor=none;align=left;verticalAlign=top;spacingLeft=4;spacingRight=4;overflow=hidden;rotatable=0;points=[[0,0.5],[1,0.5]];portConstraint=eastwest;whiteSpace=wrap;html=1;" vertex="1" parent="WaQflnwVFew0q5h23o7o-55">
          <mxGeometry y="44" width="210" height="46" as="geometry" />
        </mxCell>
        <mxCell id="WaQflnwVFew0q5h23o7o-61" value="RefreshComponentHandler" style="swimlane;fontStyle=1;align=center;verticalAlign=top;childLayout=stackLayout;horizontal=1;startSize=26;horizontalStack=0;resizeParent=1;resizeParentMax=0;resizeLast=0;collapsible=1;marginBottom=0;whiteSpace=wrap;html=1;" vertex="1" parent="1">
          <mxGeometry x="570" y="630" width="210" height="90" as="geometry" />
        </mxCell>
        <mxCell id="WaQflnwVFew0q5h23o7o-62" value="" style="line;strokeWidth=1;fillColor=none;align=left;verticalAlign=middle;spacingTop=-1;spacingLeft=3;spacingRight=3;rotatable=0;labelPosition=right;points=[];portConstraint=eastwest;strokeColor=inherit;" vertex="1" parent="WaQflnwVFew0q5h23o7o-61">
          <mxGeometry y="26" width="210" height="18" as="geometry" />
        </mxCell>
        <mxCell id="WaQflnwVFew0q5h23o7o-63" value="+ Process()" style="text;strokeColor=none;fillColor=none;align=left;verticalAlign=top;spacingLeft=4;spacingRight=4;overflow=hidden;rotatable=0;points=[[0,0.5],[1,0.5]];portConstraint=eastwest;whiteSpace=wrap;html=1;" vertex="1" parent="WaQflnwVFew0q5h23o7o-61">
          <mxGeometry y="44" width="210" height="46" as="geometry" />
        </mxCell>
        <mxCell id="WaQflnwVFew0q5h23o7o-67" value="ReparentGameObjectChangeHandler" style="swimlane;fontStyle=1;align=center;verticalAlign=top;childLayout=stackLayout;horizontal=1;startSize=26;horizontalStack=0;resizeParent=1;resizeParentMax=0;resizeLast=0;collapsible=1;marginBottom=0;whiteSpace=wrap;html=1;" vertex="1" parent="1">
          <mxGeometry x="590" y="650" width="210" height="90" as="geometry" />
        </mxCell>
        <mxCell id="WaQflnwVFew0q5h23o7o-68" value="" style="line;strokeWidth=1;fillColor=none;align=left;verticalAlign=middle;spacingTop=-1;spacingLeft=3;spacingRight=3;rotatable=0;labelPosition=right;points=[];portConstraint=eastwest;strokeColor=inherit;" vertex="1" parent="WaQflnwVFew0q5h23o7o-67">
          <mxGeometry y="26" width="210" height="18" as="geometry" />
        </mxCell>
        <mxCell id="WaQflnwVFew0q5h23o7o-69" value="+ Process()" style="text;strokeColor=none;fillColor=none;align=left;verticalAlign=top;spacingLeft=4;spacingRight=4;overflow=hidden;rotatable=0;points=[[0,0.5],[1,0.5]];portConstraint=eastwest;whiteSpace=wrap;html=1;" vertex="1" parent="WaQflnwVFew0q5h23o7o-67">
          <mxGeometry y="44" width="210" height="46" as="geometry" />
        </mxCell>
        <mxCell id="WaQflnwVFew0q5h23o7o-72" value="Change Handlers" style="text;html=1;align=left;verticalAlign=top;spacingTop=-4;fontSize=10;fontFamily=Verdana" vertex="1" parent="1">
          <mxGeometry x="160" y="480" width="150" height="20" as="geometry" />
        </mxCell>
        <mxCell id="WaQflnwVFew0q5h23o7o-80" value="" style="endArrow=block;dashed=1;endFill=0;endSize=12;html=1;rounded=0;exitX=0.5;exitY=0;exitDx=0;exitDy=0;entryX=0.001;entryY=0.027;entryDx=0;entryDy=0;entryPerimeter=0;" edge="1" parent="1" source="WaQflnwVFew0q5h23o7o-19" target="WaQflnwVFew0q5h23o7o-18">
          <mxGeometry width="160" relative="1" as="geometry">
            <mxPoint x="376" y="460" as="sourcePoint" />
            <mxPoint x="414" y="460" as="targetPoint" />
            <Array as="points">
              <mxPoint x="390" y="530" />
              <mxPoint x="390" y="435" />
            </Array>
          </mxGeometry>
        </mxCell>
        <mxCell id="WaQflnwVFew0q5h23o7o-81" value="" style="endArrow=block;dashed=1;endFill=0;endSize=12;html=1;rounded=0;entryX=0.562;entryY=1.038;entryDx=0;entryDy=0;entryPerimeter=0;" edge="1" parent="1" target="WaQflnwVFew0q5h23o7o-18">
          <mxGeometry width="160" relative="1" as="geometry">
            <mxPoint x="557" y="530" as="sourcePoint" />
            <mxPoint x="594" y="489.71" as="targetPoint" />
          </mxGeometry>
        </mxCell>
        <mxCell id="WaQflnwVFew0q5h23o7o-82" value="" style="endArrow=diamondThin;endFill=0;endSize=24;html=1;rounded=0;entryX=0.484;entryY=1.071;entryDx=0;entryDy=0;entryPerimeter=0;exitX=0.5;exitY=0;exitDx=0;exitDy=0;" edge="1" parent="1" source="WaQflnwVFew0q5h23o7o-83" target="WaQflnwVFew0q5h23o7o-21">
          <mxGeometry width="160" relative="1" as="geometry">
            <mxPoint x="325" y="850" as="sourcePoint" />
            <mxPoint x="220" y="426" as="targetPoint" />
          </mxGeometry>
        </mxCell>
        <mxCell id="WaQflnwVFew0q5h23o7o-83" value="«interface»&lt;br&gt;&lt;b&gt;IRTUEditorProcessor&lt;/b&gt;" style="html=1;whiteSpace=wrap;" vertex="1" parent="1">
          <mxGeometry x="261" y="760" width="128" height="50" as="geometry" />
        </mxCell>
        <mxCell id="WaQflnwVFew0q5h23o7o-84" value="BaseAssetUpdateChangeStrategy" style="swimlane;fontStyle=1;align=center;verticalAlign=top;childLayout=stackLayout;horizontal=1;startSize=26;horizontalStack=0;resizeParent=1;resizeParentMax=0;resizeLast=0;collapsible=1;marginBottom=0;whiteSpace=wrap;html=1;" vertex="1" parent="1">
          <mxGeometry x="-100" y="620" width="190" height="70" as="geometry" />
        </mxCell>
        <mxCell id="WaQflnwVFew0q5h23o7o-85" value="" style="line;strokeWidth=1;fillColor=none;align=left;verticalAlign=middle;spacingTop=-1;spacingLeft=3;spacingRight=3;rotatable=0;labelPosition=right;points=[];portConstraint=eastwest;strokeColor=inherit;" vertex="1" parent="WaQflnwVFew0q5h23o7o-84">
          <mxGeometry y="26" width="190" height="18" as="geometry" />
        </mxCell>
        <mxCell id="WaQflnwVFew0q5h23o7o-86" value="+ Update()" style="text;strokeColor=none;fillColor=none;align=left;verticalAlign=top;spacingLeft=4;spacingRight=4;overflow=hidden;rotatable=0;points=[[0,0.5],[1,0.5]];portConstraint=eastwest;whiteSpace=wrap;html=1;" vertex="1" parent="WaQflnwVFew0q5h23o7o-84">
          <mxGeometry y="44" width="190" height="26" as="geometry" />
        </mxCell>
        <mxCell id="WaQflnwVFew0q5h23o7o-87" value="" style="endArrow=block;dashed=1;endFill=0;endSize=12;html=1;rounded=0;entryX=1.002;entryY=1.154;entryDx=0;entryDy=0;exitX=0;exitY=0.25;exitDx=0;exitDy=0;entryPerimeter=0;" edge="1" parent="1" source="WaQflnwVFew0q5h23o7o-83" target="WaQflnwVFew0q5h23o7o-86">
          <mxGeometry width="160" relative="1" as="geometry">
            <mxPoint x="320" y="890" as="sourcePoint" />
            <mxPoint x="320" y="920" as="targetPoint" />
          </mxGeometry>
        </mxCell>
        <mxCell id="WaQflnwVFew0q5h23o7o-92" value="MaterialAssetUpdateChangeStrategy" style="swimlane;fontStyle=1;align=center;verticalAlign=top;childLayout=stackLayout;horizontal=1;startSize=26;horizontalStack=0;resizeParent=1;resizeParentMax=0;resizeLast=0;collapsible=1;marginBottom=0;whiteSpace=wrap;html=1;" vertex="1" parent="1">
          <mxGeometry x="-209.5" y="710" width="230" height="70" as="geometry" />
        </mxCell>
        <mxCell id="WaQflnwVFew0q5h23o7o-93" value="" style="line;strokeWidth=1;fillColor=none;align=left;verticalAlign=middle;spacingTop=-1;spacingLeft=3;spacingRight=3;rotatable=0;labelPosition=right;points=[];portConstraint=eastwest;strokeColor=inherit;" vertex="1" parent="WaQflnwVFew0q5h23o7o-92">
          <mxGeometry y="26" width="230" height="18" as="geometry" />
        </mxCell>
        <mxCell id="WaQflnwVFew0q5h23o7o-94" value="+ Update()" style="text;strokeColor=none;fillColor=none;align=left;verticalAlign=top;spacingLeft=4;spacingRight=4;overflow=hidden;rotatable=0;points=[[0,0.5],[1,0.5]];portConstraint=eastwest;whiteSpace=wrap;html=1;" vertex="1" parent="WaQflnwVFew0q5h23o7o-92">
          <mxGeometry y="44" width="230" height="26" as="geometry" />
        </mxCell>
        <mxCell id="WaQflnwVFew0q5h23o7o-104" value="PhysicsMaterialAssetUpdateChangeStrategy" style="swimlane;fontStyle=1;align=center;verticalAlign=top;childLayout=stackLayout;horizontal=1;startSize=26;horizontalStack=0;resizeParent=1;resizeParentMax=0;resizeLast=0;collapsible=1;marginBottom=0;whiteSpace=wrap;html=1;" vertex="1" parent="1">
          <mxGeometry x="-189.5" y="730" width="260" height="70" as="geometry" />
        </mxCell>
        <mxCell id="WaQflnwVFew0q5h23o7o-105" value="" style="line;strokeWidth=1;fillColor=none;align=left;verticalAlign=middle;spacingTop=-1;spacingLeft=3;spacingRight=3;rotatable=0;labelPosition=right;points=[];portConstraint=eastwest;strokeColor=inherit;" vertex="1" parent="WaQflnwVFew0q5h23o7o-104">
          <mxGeometry y="26" width="260" height="18" as="geometry" />
        </mxCell>
        <mxCell id="WaQflnwVFew0q5h23o7o-106" value="+ Update()" style="text;strokeColor=none;fillColor=none;align=left;verticalAlign=top;spacingLeft=4;spacingRight=4;overflow=hidden;rotatable=0;points=[[0,0.5],[1,0.5]];portConstraint=eastwest;whiteSpace=wrap;html=1;" vertex="1" parent="WaQflnwVFew0q5h23o7o-104">
          <mxGeometry y="44" width="260" height="26" as="geometry" />
        </mxCell>
        <mxCell id="WaQflnwVFew0q5h23o7o-110" value="TextureAssetUpdateChangeStrategy" style="swimlane;fontStyle=1;align=center;verticalAlign=top;childLayout=stackLayout;horizontal=1;startSize=26;horizontalStack=0;resizeParent=1;resizeParentMax=0;resizeLast=0;collapsible=1;marginBottom=0;whiteSpace=wrap;html=1;" vertex="1" parent="1">
          <mxGeometry x="-169.5" y="750" width="260" height="70" as="geometry" />
        </mxCell>
        <mxCell id="WaQflnwVFew0q5h23o7o-111" value="" style="line;strokeWidth=1;fillColor=none;align=left;verticalAlign=middle;spacingTop=-1;spacingLeft=3;spacingRight=3;rotatable=0;labelPosition=right;points=[];portConstraint=eastwest;strokeColor=inherit;" vertex="1" parent="WaQflnwVFew0q5h23o7o-110">
          <mxGeometry y="26" width="260" height="18" as="geometry" />
        </mxCell>
        <mxCell id="WaQflnwVFew0q5h23o7o-112" value="+ Update()" style="text;strokeColor=none;fillColor=none;align=left;verticalAlign=top;spacingLeft=4;spacingRight=4;overflow=hidden;rotatable=0;points=[[0,0.5],[1,0.5]];portConstraint=eastwest;whiteSpace=wrap;html=1;" vertex="1" parent="WaQflnwVFew0q5h23o7o-110">
          <mxGeometry y="44" width="260" height="26" as="geometry" />
        </mxCell>
        <mxCell id="WaQflnwVFew0q5h23o7o-114" value="Asset Change Handlers" style="text;html=1;align=left;verticalAlign=top;spacingTop=-4;fontSize=10;fontFamily=Verdana" vertex="1" parent="1">
          <mxGeometry x="-268.5" y="580" width="150" height="20" as="geometry" />
        </mxCell>
        <mxCell id="WaQflnwVFew0q5h23o7o-183" value="ColorJsonConverter" style="swimlane;fontStyle=1;align=center;verticalAlign=top;childLayout=stackLayout;horizontal=1;startSize=26;horizontalStack=0;resizeParent=1;resizeParentMax=0;resizeLast=0;collapsible=1;marginBottom=0;whiteSpace=wrap;html=1;" vertex="1" parent="1">
          <mxGeometry x="960" y="330" width="190" height="90" as="geometry" />
        </mxCell>
        <mxCell id="WaQflnwVFew0q5h23o7o-184" value="" style="line;strokeWidth=1;fillColor=none;align=left;verticalAlign=middle;spacingTop=-1;spacingLeft=3;spacingRight=3;rotatable=0;labelPosition=right;points=[];portConstraint=eastwest;strokeColor=inherit;" vertex="1" parent="WaQflnwVFew0q5h23o7o-183">
          <mxGeometry y="26" width="190" height="18" as="geometry" />
        </mxCell>
        <mxCell id="WaQflnwVFew0q5h23o7o-185" value="+ WriteJson()&lt;div&gt;+ ReadJson()&lt;/div&gt;" style="text;strokeColor=none;fillColor=none;align=left;verticalAlign=top;spacingLeft=4;spacingRight=4;overflow=hidden;rotatable=0;points=[[0,0.5],[1,0.5]];portConstraint=eastwest;whiteSpace=wrap;html=1;" vertex="1" parent="WaQflnwVFew0q5h23o7o-183">
          <mxGeometry y="44" width="190" height="46" as="geometry" />
        </mxCell>
        <mxCell id="WaQflnwVFew0q5h23o7o-196" value="JSONConverters" style="text;html=1;align=left;verticalAlign=top;spacingTop=-4;fontSize=10;fontFamily=Verdana" vertex="1" parent="1">
          <mxGeometry x="941" y="280" width="150" height="20" as="geometry" />
        </mxCell>
        <mxCell id="WaQflnwVFew0q5h23o7o-200" value="MatrixJsonConverter" style="swimlane;fontStyle=1;align=center;verticalAlign=top;childLayout=stackLayout;horizontal=1;startSize=26;horizontalStack=0;resizeParent=1;resizeParentMax=0;resizeLast=0;collapsible=1;marginBottom=0;whiteSpace=wrap;html=1;" vertex="1" parent="1">
          <mxGeometry x="980" y="350" width="190" height="90" as="geometry" />
        </mxCell>
        <mxCell id="WaQflnwVFew0q5h23o7o-201" value="" style="line;strokeWidth=1;fillColor=none;align=left;verticalAlign=middle;spacingTop=-1;spacingLeft=3;spacingRight=3;rotatable=0;labelPosition=right;points=[];portConstraint=eastwest;strokeColor=inherit;" vertex="1" parent="WaQflnwVFew0q5h23o7o-200">
          <mxGeometry y="26" width="190" height="18" as="geometry" />
        </mxCell>
        <mxCell id="WaQflnwVFew0q5h23o7o-202" value="+ WriteJson()&lt;div&gt;+ ReadJson()&lt;/div&gt;" style="text;strokeColor=none;fillColor=none;align=left;verticalAlign=top;spacingLeft=4;spacingRight=4;overflow=hidden;rotatable=0;points=[[0,0.5],[1,0.5]];portConstraint=eastwest;whiteSpace=wrap;html=1;" vertex="1" parent="WaQflnwVFew0q5h23o7o-200">
          <mxGeometry y="44" width="190" height="46" as="geometry" />
        </mxCell>
        <mxCell id="WaQflnwVFew0q5h23o7o-206" value="QuaternionConverter" style="swimlane;fontStyle=1;align=center;verticalAlign=top;childLayout=stackLayout;horizontal=1;startSize=26;horizontalStack=0;resizeParent=1;resizeParentMax=0;resizeLast=0;collapsible=1;marginBottom=0;whiteSpace=wrap;html=1;" vertex="1" parent="1">
          <mxGeometry x="1000" y="370" width="190" height="90" as="geometry" />
        </mxCell>
        <mxCell id="WaQflnwVFew0q5h23o7o-207" value="" style="line;strokeWidth=1;fillColor=none;align=left;verticalAlign=middle;spacingTop=-1;spacingLeft=3;spacingRight=3;rotatable=0;labelPosition=right;points=[];portConstraint=eastwest;strokeColor=inherit;" vertex="1" parent="WaQflnwVFew0q5h23o7o-206">
          <mxGeometry y="26" width="190" height="18" as="geometry" />
        </mxCell>
        <mxCell id="WaQflnwVFew0q5h23o7o-208" value="+ WriteJson()&lt;div&gt;+ ReadJson()&lt;/div&gt;" style="text;strokeColor=none;fillColor=none;align=left;verticalAlign=top;spacingLeft=4;spacingRight=4;overflow=hidden;rotatable=0;points=[[0,0.5],[1,0.5]];portConstraint=eastwest;whiteSpace=wrap;html=1;" vertex="1" parent="WaQflnwVFew0q5h23o7o-206">
          <mxGeometry y="44" width="190" height="46" as="geometry" />
        </mxCell>
        <mxCell id="WaQflnwVFew0q5h23o7o-212" value="Vector2" style="swimlane;fontStyle=1;align=center;verticalAlign=top;childLayout=stackLayout;horizontal=1;startSize=26;horizontalStack=0;resizeParent=1;resizeParentMax=0;resizeLast=0;collapsible=1;marginBottom=0;whiteSpace=wrap;html=1;" vertex="1" parent="1">
          <mxGeometry x="1020" y="390" width="190" height="90" as="geometry" />
        </mxCell>
        <mxCell id="WaQflnwVFew0q5h23o7o-213" value="" style="line;strokeWidth=1;fillColor=none;align=left;verticalAlign=middle;spacingTop=-1;spacingLeft=3;spacingRight=3;rotatable=0;labelPosition=right;points=[];portConstraint=eastwest;strokeColor=inherit;" vertex="1" parent="WaQflnwVFew0q5h23o7o-212">
          <mxGeometry y="26" width="190" height="18" as="geometry" />
        </mxCell>
        <mxCell id="WaQflnwVFew0q5h23o7o-214" value="+ WriteJson()&lt;div&gt;+ ReadJson()&lt;/div&gt;" style="text;strokeColor=none;fillColor=none;align=left;verticalAlign=top;spacingLeft=4;spacingRight=4;overflow=hidden;rotatable=0;points=[[0,0.5],[1,0.5]];portConstraint=eastwest;whiteSpace=wrap;html=1;" vertex="1" parent="WaQflnwVFew0q5h23o7o-212">
          <mxGeometry y="44" width="190" height="46" as="geometry" />
        </mxCell>
        <mxCell id="WaQflnwVFew0q5h23o7o-218" value="Vector3" style="swimlane;fontStyle=1;align=center;verticalAlign=top;childLayout=stackLayout;horizontal=1;startSize=26;horizontalStack=0;resizeParent=1;resizeParentMax=0;resizeLast=0;collapsible=1;marginBottom=0;whiteSpace=wrap;html=1;" vertex="1" parent="1">
          <mxGeometry x="1040" y="410" width="190" height="90" as="geometry" />
        </mxCell>
        <mxCell id="WaQflnwVFew0q5h23o7o-219" value="" style="line;strokeWidth=1;fillColor=none;align=left;verticalAlign=middle;spacingTop=-1;spacingLeft=3;spacingRight=3;rotatable=0;labelPosition=right;points=[];portConstraint=eastwest;strokeColor=inherit;" vertex="1" parent="WaQflnwVFew0q5h23o7o-218">
          <mxGeometry y="26" width="190" height="18" as="geometry" />
        </mxCell>
        <mxCell id="WaQflnwVFew0q5h23o7o-220" value="+ WriteJson()&lt;div&gt;+ ReadJson()&lt;/div&gt;" style="text;strokeColor=none;fillColor=none;align=left;verticalAlign=top;spacingLeft=4;spacingRight=4;overflow=hidden;rotatable=0;points=[[0,0.5],[1,0.5]];portConstraint=eastwest;whiteSpace=wrap;html=1;" vertex="1" parent="WaQflnwVFew0q5h23o7o-218">
          <mxGeometry y="44" width="190" height="46" as="geometry" />
        </mxCell>
        <mxCell id="WaQflnwVFew0q5h23o7o-224" value="Vector3Array" style="swimlane;fontStyle=1;align=center;verticalAlign=top;childLayout=stackLayout;horizontal=1;startSize=26;horizontalStack=0;resizeParent=1;resizeParentMax=0;resizeLast=0;collapsible=1;marginBottom=0;whiteSpace=wrap;html=1;" vertex="1" parent="1">
          <mxGeometry x="1060" y="430" width="190" height="90" as="geometry" />
        </mxCell>
        <mxCell id="WaQflnwVFew0q5h23o7o-225" value="" style="line;strokeWidth=1;fillColor=none;align=left;verticalAlign=middle;spacingTop=-1;spacingLeft=3;spacingRight=3;rotatable=0;labelPosition=right;points=[];portConstraint=eastwest;strokeColor=inherit;" vertex="1" parent="WaQflnwVFew0q5h23o7o-224">
          <mxGeometry y="26" width="190" height="18" as="geometry" />
        </mxCell>
        <mxCell id="WaQflnwVFew0q5h23o7o-226" value="+ WriteJson()&lt;div&gt;+ ReadJson()&lt;/div&gt;" style="text;strokeColor=none;fillColor=none;align=left;verticalAlign=top;spacingLeft=4;spacingRight=4;overflow=hidden;rotatable=0;points=[[0,0.5],[1,0.5]];portConstraint=eastwest;whiteSpace=wrap;html=1;" vertex="1" parent="WaQflnwVFew0q5h23o7o-224">
          <mxGeometry y="44" width="190" height="46" as="geometry" />
        </mxCell>
        <mxCell id="WaQflnwVFew0q5h23o7o-227" value="AssetJsonConverter" style="swimlane;fontStyle=1;align=center;verticalAlign=top;childLayout=stackLayout;horizontal=1;startSize=26;horizontalStack=0;resizeParent=1;resizeParentMax=0;resizeLast=0;collapsible=1;marginBottom=0;whiteSpace=wrap;html=1;" vertex="1" parent="1">
          <mxGeometry x="1280" y="330" width="190" height="90" as="geometry" />
        </mxCell>
        <mxCell id="WaQflnwVFew0q5h23o7o-228" value="" style="line;strokeWidth=1;fillColor=none;align=left;verticalAlign=middle;spacingTop=-1;spacingLeft=3;spacingRight=3;rotatable=0;labelPosition=right;points=[];portConstraint=eastwest;strokeColor=inherit;" vertex="1" parent="WaQflnwVFew0q5h23o7o-227">
          <mxGeometry y="26" width="190" height="18" as="geometry" />
        </mxCell>
        <mxCell id="WaQflnwVFew0q5h23o7o-229" value="+ WriteJson()&lt;div&gt;+ ReadJson()&lt;/div&gt;" style="text;strokeColor=none;fillColor=none;align=left;verticalAlign=top;spacingLeft=4;spacingRight=4;overflow=hidden;rotatable=0;points=[[0,0.5],[1,0.5]];portConstraint=eastwest;whiteSpace=wrap;html=1;" vertex="1" parent="WaQflnwVFew0q5h23o7o-227">
          <mxGeometry y="44" width="190" height="46" as="geometry" />
        </mxCell>
        <mxCell id="WaQflnwVFew0q5h23o7o-230" value="" style="endArrow=open;endFill=1;endSize=12;html=1;rounded=0;entryX=0.48;entryY=1.034;entryDx=0;entryDy=0;entryPerimeter=0;exitX=0.75;exitY=0;exitDx=0;exitDy=0;" edge="1" parent="1" source="WaQflnwVFew0q5h23o7o-183" target="WaQflnwVFew0q5h23o7o-10">
          <mxGeometry width="160" relative="1" as="geometry">
            <mxPoint x="970" y="450" as="sourcePoint" />
            <mxPoint x="1130" y="450" as="targetPoint" />
          </mxGeometry>
        </mxCell>
        <mxCell id="WaQflnwVFew0q5h23o7o-231" value="" style="endArrow=open;endFill=1;endSize=12;html=1;rounded=0;entryX=0.48;entryY=1.034;entryDx=0;entryDy=0;entryPerimeter=0;exitX=0;exitY=0;exitDx=0;exitDy=0;" edge="1" parent="1" source="WaQflnwVFew0q5h23o7o-227">
          <mxGeometry width="160" relative="1" as="geometry">
            <mxPoint x="1212" y="328.25" as="sourcePoint" />
            <mxPoint x="1210" y="248.25" as="targetPoint" />
          </mxGeometry>
        </mxCell>
        <mxCell id="WaQflnwVFew0q5h23o7o-232" value="" style="endArrow=diamondThin;endFill=0;endSize=24;html=1;rounded=0;entryX=0.504;entryY=0.972;entryDx=0;entryDy=0;entryPerimeter=0;" edge="1" parent="1" target="WaQflnwVFew0q5h23o7o-229">
          <mxGeometry width="160" relative="1" as="geometry">
            <mxPoint x="1376" y="490" as="sourcePoint" />
            <mxPoint x="1374.71" y="473" as="targetPoint" />
          </mxGeometry>
        </mxCell>
        <mxCell id="WaQflnwVFew0q5h23o7o-233" value="BoxColliderJsonConverter" style="swimlane;fontStyle=1;align=center;verticalAlign=top;childLayout=stackLayout;horizontal=1;startSize=26;horizontalStack=0;resizeParent=1;resizeParentMax=0;resizeLast=0;collapsible=1;marginBottom=0;whiteSpace=wrap;html=1;" vertex="1" parent="1">
          <mxGeometry x="1340" y="490" width="190" height="90" as="geometry" />
        </mxCell>
        <mxCell id="WaQflnwVFew0q5h23o7o-234" value="" style="line;strokeWidth=1;fillColor=none;align=left;verticalAlign=middle;spacingTop=-1;spacingLeft=3;spacingRight=3;rotatable=0;labelPosition=right;points=[];portConstraint=eastwest;strokeColor=inherit;" vertex="1" parent="WaQflnwVFew0q5h23o7o-233">
          <mxGeometry y="26" width="190" height="18" as="geometry" />
        </mxCell>
        <mxCell id="WaQflnwVFew0q5h23o7o-235" value="+ WriteJson()&lt;div&gt;+ ReadJson()&lt;/div&gt;" style="text;strokeColor=none;fillColor=none;align=left;verticalAlign=top;spacingLeft=4;spacingRight=4;overflow=hidden;rotatable=0;points=[[0,0.5],[1,0.5]];portConstraint=eastwest;whiteSpace=wrap;html=1;" vertex="1" parent="WaQflnwVFew0q5h23o7o-233">
          <mxGeometry y="44" width="190" height="46" as="geometry" />
        </mxCell>
        <mxCell id="WaQflnwVFew0q5h23o7o-239" value="ComponentJsonConverter" style="swimlane;fontStyle=1;align=center;verticalAlign=top;childLayout=stackLayout;horizontal=1;startSize=26;horizontalStack=0;resizeParent=1;resizeParentMax=0;resizeLast=0;collapsible=1;marginBottom=0;whiteSpace=wrap;html=1;" vertex="1" parent="1">
          <mxGeometry x="1360" y="510" width="190" height="90" as="geometry" />
        </mxCell>
        <mxCell id="WaQflnwVFew0q5h23o7o-240" value="" style="line;strokeWidth=1;fillColor=none;align=left;verticalAlign=middle;spacingTop=-1;spacingLeft=3;spacingRight=3;rotatable=0;labelPosition=right;points=[];portConstraint=eastwest;strokeColor=inherit;" vertex="1" parent="WaQflnwVFew0q5h23o7o-239">
          <mxGeometry y="26" width="190" height="18" as="geometry" />
        </mxCell>
        <mxCell id="WaQflnwVFew0q5h23o7o-241" value="+ WriteJson()&lt;div&gt;+ ReadJson()&lt;/div&gt;" style="text;strokeColor=none;fillColor=none;align=left;verticalAlign=top;spacingLeft=4;spacingRight=4;overflow=hidden;rotatable=0;points=[[0,0.5],[1,0.5]];portConstraint=eastwest;whiteSpace=wrap;html=1;" vertex="1" parent="WaQflnwVFew0q5h23o7o-239">
          <mxGeometry y="44" width="190" height="46" as="geometry" />
        </mxCell>
        <mxCell id="WaQflnwVFew0q5h23o7o-251" value="GameObjectJsonConverter" style="swimlane;fontStyle=1;align=center;verticalAlign=top;childLayout=stackLayout;horizontal=1;startSize=26;horizontalStack=0;resizeParent=1;resizeParentMax=0;resizeLast=0;collapsible=1;marginBottom=0;whiteSpace=wrap;html=1;" vertex="1" parent="1">
          <mxGeometry x="1380" y="530" width="190" height="90" as="geometry" />
        </mxCell>
        <mxCell id="WaQflnwVFew0q5h23o7o-252" value="" style="line;strokeWidth=1;fillColor=none;align=left;verticalAlign=middle;spacingTop=-1;spacingLeft=3;spacingRight=3;rotatable=0;labelPosition=right;points=[];portConstraint=eastwest;strokeColor=inherit;" vertex="1" parent="WaQflnwVFew0q5h23o7o-251">
          <mxGeometry y="26" width="190" height="18" as="geometry" />
        </mxCell>
        <mxCell id="WaQflnwVFew0q5h23o7o-253" value="+ WriteJson()&lt;div&gt;+ ReadJson()&lt;/div&gt;" style="text;strokeColor=none;fillColor=none;align=left;verticalAlign=top;spacingLeft=4;spacingRight=4;overflow=hidden;rotatable=0;points=[[0,0.5],[1,0.5]];portConstraint=eastwest;whiteSpace=wrap;html=1;" vertex="1" parent="WaQflnwVFew0q5h23o7o-251">
          <mxGeometry y="44" width="190" height="46" as="geometry" />
        </mxCell>
        <mxCell id="WaQflnwVFew0q5h23o7o-257" value="MaterialJsonConverter" style="swimlane;fontStyle=1;align=center;verticalAlign=top;childLayout=stackLayout;horizontal=1;startSize=26;horizontalStack=0;resizeParent=1;resizeParentMax=0;resizeLast=0;collapsible=1;marginBottom=0;whiteSpace=wrap;html=1;" vertex="1" parent="1">
          <mxGeometry x="1400" y="550" width="190" height="90" as="geometry" />
        </mxCell>
        <mxCell id="WaQflnwVFew0q5h23o7o-258" value="" style="line;strokeWidth=1;fillColor=none;align=left;verticalAlign=middle;spacingTop=-1;spacingLeft=3;spacingRight=3;rotatable=0;labelPosition=right;points=[];portConstraint=eastwest;strokeColor=inherit;" vertex="1" parent="WaQflnwVFew0q5h23o7o-257">
          <mxGeometry y="26" width="190" height="18" as="geometry" />
        </mxCell>
        <mxCell id="WaQflnwVFew0q5h23o7o-259" value="+ WriteJson()&lt;div&gt;+ ReadJson()&lt;/div&gt;" style="text;strokeColor=none;fillColor=none;align=left;verticalAlign=top;spacingLeft=4;spacingRight=4;overflow=hidden;rotatable=0;points=[[0,0.5],[1,0.5]];portConstraint=eastwest;whiteSpace=wrap;html=1;" vertex="1" parent="WaQflnwVFew0q5h23o7o-257">
          <mxGeometry y="44" width="190" height="46" as="geometry" />
        </mxCell>
        <mxCell id="WaQflnwVFew0q5h23o7o-263" value="MeshJsonConverter" style="swimlane;fontStyle=1;align=center;verticalAlign=top;childLayout=stackLayout;horizontal=1;startSize=26;horizontalStack=0;resizeParent=1;resizeParentMax=0;resizeLast=0;collapsible=1;marginBottom=0;whiteSpace=wrap;html=1;" vertex="1" parent="1">
          <mxGeometry x="1420" y="570" width="190" height="90" as="geometry" />
        </mxCell>
        <mxCell id="WaQflnwVFew0q5h23o7o-264" value="" style="line;strokeWidth=1;fillColor=none;align=left;verticalAlign=middle;spacingTop=-1;spacingLeft=3;spacingRight=3;rotatable=0;labelPosition=right;points=[];portConstraint=eastwest;strokeColor=inherit;" vertex="1" parent="WaQflnwVFew0q5h23o7o-263">
          <mxGeometry y="26" width="190" height="18" as="geometry" />
        </mxCell>
        <mxCell id="WaQflnwVFew0q5h23o7o-265" value="+ WriteJson()&lt;div&gt;+ ReadJson()&lt;/div&gt;" style="text;strokeColor=none;fillColor=none;align=left;verticalAlign=top;spacingLeft=4;spacingRight=4;overflow=hidden;rotatable=0;points=[[0,0.5],[1,0.5]];portConstraint=eastwest;whiteSpace=wrap;html=1;" vertex="1" parent="WaQflnwVFew0q5h23o7o-263">
          <mxGeometry y="44" width="190" height="46" as="geometry" />
        </mxCell>
        <mxCell id="WaQflnwVFew0q5h23o7o-272" value="TextureJsonConverter" style="swimlane;fontStyle=1;align=center;verticalAlign=top;childLayout=stackLayout;horizontal=1;startSize=26;horizontalStack=0;resizeParent=1;resizeParentMax=0;resizeLast=0;collapsible=1;marginBottom=0;whiteSpace=wrap;html=1;" vertex="1" parent="1">
          <mxGeometry x="1440" y="590" width="190" height="90" as="geometry" />
        </mxCell>
        <mxCell id="WaQflnwVFew0q5h23o7o-273" value="" style="line;strokeWidth=1;fillColor=none;align=left;verticalAlign=middle;spacingTop=-1;spacingLeft=3;spacingRight=3;rotatable=0;labelPosition=right;points=[];portConstraint=eastwest;strokeColor=inherit;" vertex="1" parent="WaQflnwVFew0q5h23o7o-272">
          <mxGeometry y="26" width="190" height="18" as="geometry" />
        </mxCell>
        <mxCell id="WaQflnwVFew0q5h23o7o-274" value="+ WriteJson()&lt;div&gt;+ ReadJson()&lt;/div&gt;" style="text;strokeColor=none;fillColor=none;align=left;verticalAlign=top;spacingLeft=4;spacingRight=4;overflow=hidden;rotatable=0;points=[[0,0.5],[1,0.5]];portConstraint=eastwest;whiteSpace=wrap;html=1;" vertex="1" parent="WaQflnwVFew0q5h23o7o-272">
          <mxGeometry y="44" width="190" height="46" as="geometry" />
        </mxCell>
        <mxCell id="WaQflnwVFew0q5h23o7o-278" value="Vector4" style="swimlane;fontStyle=1;align=center;verticalAlign=top;childLayout=stackLayout;horizontal=1;startSize=26;horizontalStack=0;resizeParent=1;resizeParentMax=0;resizeLast=0;collapsible=1;marginBottom=0;whiteSpace=wrap;html=1;" vertex="1" parent="1">
          <mxGeometry x="1080" y="450" width="190" height="90" as="geometry" />
        </mxCell>
        <mxCell id="WaQflnwVFew0q5h23o7o-279" value="" style="line;strokeWidth=1;fillColor=none;align=left;verticalAlign=middle;spacingTop=-1;spacingLeft=3;spacingRight=3;rotatable=0;labelPosition=right;points=[];portConstraint=eastwest;strokeColor=inherit;" vertex="1" parent="WaQflnwVFew0q5h23o7o-278">
          <mxGeometry y="26" width="190" height="18" as="geometry" />
        </mxCell>
        <mxCell id="WaQflnwVFew0q5h23o7o-280" value="+ WriteJson()&lt;div&gt;+ ReadJson()&lt;/div&gt;" style="text;strokeColor=none;fillColor=none;align=left;verticalAlign=top;spacingLeft=4;spacingRight=4;overflow=hidden;rotatable=0;points=[[0,0.5],[1,0.5]];portConstraint=eastwest;whiteSpace=wrap;html=1;" vertex="1" parent="WaQflnwVFew0q5h23o7o-278">
          <mxGeometry y="44" width="190" height="46" as="geometry" />
        </mxCell>
        <mxCell id="WaQflnwVFew0q5h23o7o-281" value="«interface»&lt;br&gt;&lt;b&gt;IPayload&lt;/b&gt;" style="html=1;whiteSpace=wrap;" vertex="1" parent="1">
          <mxGeometry x="244.5" y="310" width="161" height="50" as="geometry" />
        </mxCell>
        <mxCell id="WaQflnwVFew0q5h23o7o-282" value="«interface»&lt;br&gt;&lt;b&gt;IPropertyPayload&lt;/b&gt;" style="html=1;whiteSpace=wrap;" vertex="1" parent="1">
          <mxGeometry x="-40.5" y="265" width="161" height="50" as="geometry" />
        </mxCell>
        <mxCell id="WaQflnwVFew0q5h23o7o-283" value="ComponentPropertyPayload" style="swimlane;fontStyle=1;align=center;verticalAlign=top;childLayout=stackLayout;horizontal=1;startSize=26;horizontalStack=0;resizeParent=1;resizeParentMax=0;resizeLast=0;collapsible=1;marginBottom=0;whiteSpace=wrap;html=1;" vertex="1" parent="1">
          <mxGeometry x="-270.5" y="260" width="190" height="70" as="geometry" />
        </mxCell>
        <mxCell id="WaQflnwVFew0q5h23o7o-284" value="" style="line;strokeWidth=1;fillColor=none;align=left;verticalAlign=middle;spacingTop=-1;spacingLeft=3;spacingRight=3;rotatable=0;labelPosition=right;points=[];portConstraint=eastwest;strokeColor=inherit;" vertex="1" parent="WaQflnwVFew0q5h23o7o-283">
          <mxGeometry y="26" width="190" height="18" as="geometry" />
        </mxCell>
        <mxCell id="WaQflnwVFew0q5h23o7o-285" value="+ Process()" style="text;strokeColor=none;fillColor=none;align=left;verticalAlign=top;spacingLeft=4;spacingRight=4;overflow=hidden;rotatable=0;points=[[0,0.5],[1,0.5]];portConstraint=eastwest;whiteSpace=wrap;html=1;" vertex="1" parent="WaQflnwVFew0q5h23o7o-283">
          <mxGeometry y="44" width="190" height="26" as="geometry" />
        </mxCell>
        <mxCell id="WaQflnwVFew0q5h23o7o-286" value="CreateGameObjectPayload" style="swimlane;fontStyle=1;align=center;verticalAlign=top;childLayout=stackLayout;horizontal=1;startSize=26;horizontalStack=0;resizeParent=1;resizeParentMax=0;resizeLast=0;collapsible=1;marginBottom=0;whiteSpace=wrap;html=1;" vertex="1" parent="1">
          <mxGeometry x="-270.5" y="340" width="210" height="90" as="geometry" />
        </mxCell>
        <mxCell id="WaQflnwVFew0q5h23o7o-287" value="" style="line;strokeWidth=1;fillColor=none;align=left;verticalAlign=middle;spacingTop=-1;spacingLeft=3;spacingRight=3;rotatable=0;labelPosition=right;points=[];portConstraint=eastwest;strokeColor=inherit;" vertex="1" parent="WaQflnwVFew0q5h23o7o-286">
          <mxGeometry y="26" width="210" height="18" as="geometry" />
        </mxCell>
        <mxCell id="WaQflnwVFew0q5h23o7o-288" value="+ Process()" style="text;strokeColor=none;fillColor=none;align=left;verticalAlign=top;spacingLeft=4;spacingRight=4;overflow=hidden;rotatable=0;points=[[0,0.5],[1,0.5]];portConstraint=eastwest;whiteSpace=wrap;html=1;" vertex="1" parent="WaQflnwVFew0q5h23o7o-286">
          <mxGeometry y="44" width="210" height="46" as="geometry" />
        </mxCell>
        <mxCell id="WaQflnwVFew0q5h23o7o-289" value="DestroyGameObjectPayload" style="swimlane;fontStyle=1;align=center;verticalAlign=top;childLayout=stackLayout;horizontal=1;startSize=26;horizontalStack=0;resizeParent=1;resizeParentMax=0;resizeLast=0;collapsible=1;marginBottom=0;whiteSpace=wrap;html=1;" vertex="1" parent="1">
          <mxGeometry x="-250.5" y="360" width="210" height="90" as="geometry" />
        </mxCell>
        <mxCell id="WaQflnwVFew0q5h23o7o-290" value="" style="line;strokeWidth=1;fillColor=none;align=left;verticalAlign=middle;spacingTop=-1;spacingLeft=3;spacingRight=3;rotatable=0;labelPosition=right;points=[];portConstraint=eastwest;strokeColor=inherit;" vertex="1" parent="WaQflnwVFew0q5h23o7o-289">
          <mxGeometry y="26" width="210" height="18" as="geometry" />
        </mxCell>
        <mxCell id="WaQflnwVFew0q5h23o7o-291" value="+ Process()" style="text;strokeColor=none;fillColor=none;align=left;verticalAlign=top;spacingLeft=4;spacingRight=4;overflow=hidden;rotatable=0;points=[[0,0.5],[1,0.5]];portConstraint=eastwest;whiteSpace=wrap;html=1;" vertex="1" parent="WaQflnwVFew0q5h23o7o-289">
          <mxGeometry y="44" width="210" height="46" as="geometry" />
        </mxCell>
        <mxCell id="WaQflnwVFew0q5h23o7o-292" value="GameObjectPropertyPayload" style="swimlane;fontStyle=1;align=center;verticalAlign=top;childLayout=stackLayout;horizontal=1;startSize=26;horizontalStack=0;resizeParent=1;resizeParentMax=0;resizeLast=0;collapsible=1;marginBottom=0;whiteSpace=wrap;html=1;" vertex="1" parent="1">
          <mxGeometry x="-230.5" y="380" width="210" height="90" as="geometry" />
        </mxCell>
        <mxCell id="WaQflnwVFew0q5h23o7o-293" value="" style="line;strokeWidth=1;fillColor=none;align=left;verticalAlign=middle;spacingTop=-1;spacingLeft=3;spacingRight=3;rotatable=0;labelPosition=right;points=[];portConstraint=eastwest;strokeColor=inherit;" vertex="1" parent="WaQflnwVFew0q5h23o7o-292">
          <mxGeometry y="26" width="210" height="18" as="geometry" />
        </mxCell>
        <mxCell id="WaQflnwVFew0q5h23o7o-294" value="+ Process()" style="text;strokeColor=none;fillColor=none;align=left;verticalAlign=top;spacingLeft=4;spacingRight=4;overflow=hidden;rotatable=0;points=[[0,0.5],[1,0.5]];portConstraint=eastwest;whiteSpace=wrap;html=1;" vertex="1" parent="WaQflnwVFew0q5h23o7o-292">
          <mxGeometry y="44" width="210" height="46" as="geometry" />
        </mxCell>
        <mxCell id="WaQflnwVFew0q5h23o7o-295" value="GameObjectStructurePayload" style="swimlane;fontStyle=1;align=center;verticalAlign=top;childLayout=stackLayout;horizontal=1;startSize=26;horizontalStack=0;resizeParent=1;resizeParentMax=0;resizeLast=0;collapsible=1;marginBottom=0;whiteSpace=wrap;html=1;" vertex="1" parent="1">
          <mxGeometry x="-210.5" y="400" width="210" height="90" as="geometry" />
        </mxCell>
        <mxCell id="WaQflnwVFew0q5h23o7o-296" value="" style="line;strokeWidth=1;fillColor=none;align=left;verticalAlign=middle;spacingTop=-1;spacingLeft=3;spacingRight=3;rotatable=0;labelPosition=right;points=[];portConstraint=eastwest;strokeColor=inherit;" vertex="1" parent="WaQflnwVFew0q5h23o7o-295">
          <mxGeometry y="26" width="210" height="18" as="geometry" />
        </mxCell>
        <mxCell id="WaQflnwVFew0q5h23o7o-297" value="+ Process()" style="text;strokeColor=none;fillColor=none;align=left;verticalAlign=top;spacingLeft=4;spacingRight=4;overflow=hidden;rotatable=0;points=[[0,0.5],[1,0.5]];portConstraint=eastwest;whiteSpace=wrap;html=1;" vertex="1" parent="WaQflnwVFew0q5h23o7o-295">
          <mxGeometry y="44" width="210" height="46" as="geometry" />
        </mxCell>
        <mxCell id="WaQflnwVFew0q5h23o7o-301" value="RefreshComponentPayload" style="swimlane;fontStyle=1;align=center;verticalAlign=top;childLayout=stackLayout;horizontal=1;startSize=26;horizontalStack=0;resizeParent=1;resizeParentMax=0;resizeLast=0;collapsible=1;marginBottom=0;whiteSpace=wrap;html=1;" vertex="1" parent="1">
          <mxGeometry x="-180.5" y="420" width="210" height="90" as="geometry" />
        </mxCell>
        <mxCell id="WaQflnwVFew0q5h23o7o-302" value="" style="line;strokeWidth=1;fillColor=none;align=left;verticalAlign=middle;spacingTop=-1;spacingLeft=3;spacingRight=3;rotatable=0;labelPosition=right;points=[];portConstraint=eastwest;strokeColor=inherit;" vertex="1" parent="WaQflnwVFew0q5h23o7o-301">
          <mxGeometry y="26" width="210" height="18" as="geometry" />
        </mxCell>
        <mxCell id="WaQflnwVFew0q5h23o7o-303" value="+ Process()" style="text;strokeColor=none;fillColor=none;align=left;verticalAlign=top;spacingLeft=4;spacingRight=4;overflow=hidden;rotatable=0;points=[[0,0.5],[1,0.5]];portConstraint=eastwest;whiteSpace=wrap;html=1;" vertex="1" parent="WaQflnwVFew0q5h23o7o-301">
          <mxGeometry y="44" width="210" height="46" as="geometry" />
        </mxCell>
        <mxCell id="WaQflnwVFew0q5h23o7o-304" value="ReparentGameObjectPayload" style="swimlane;fontStyle=1;align=center;verticalAlign=top;childLayout=stackLayout;horizontal=1;startSize=26;horizontalStack=0;resizeParent=1;resizeParentMax=0;resizeLast=0;collapsible=1;marginBottom=0;whiteSpace=wrap;html=1;" vertex="1" parent="1">
          <mxGeometry x="-160.5" y="440" width="210" height="90" as="geometry" />
        </mxCell>
        <mxCell id="WaQflnwVFew0q5h23o7o-305" value="" style="line;strokeWidth=1;fillColor=none;align=left;verticalAlign=middle;spacingTop=-1;spacingLeft=3;spacingRight=3;rotatable=0;labelPosition=right;points=[];portConstraint=eastwest;strokeColor=inherit;" vertex="1" parent="WaQflnwVFew0q5h23o7o-304">
          <mxGeometry y="26" width="210" height="18" as="geometry" />
        </mxCell>
        <mxCell id="WaQflnwVFew0q5h23o7o-306" value="+ Process()" style="text;strokeColor=none;fillColor=none;align=left;verticalAlign=top;spacingLeft=4;spacingRight=4;overflow=hidden;rotatable=0;points=[[0,0.5],[1,0.5]];portConstraint=eastwest;whiteSpace=wrap;html=1;" vertex="1" parent="WaQflnwVFew0q5h23o7o-304">
          <mxGeometry y="44" width="210" height="46" as="geometry" />
        </mxCell>
        <mxCell id="WaQflnwVFew0q5h23o7o-307" value="" style="endArrow=block;dashed=1;endFill=0;endSize=12;html=1;rounded=0;entryX=0;entryY=0.5;entryDx=0;entryDy=0;" edge="1" parent="1" target="WaQflnwVFew0q5h23o7o-282">
          <mxGeometry width="160" relative="1" as="geometry">
            <mxPoint x="-80" y="290" as="sourcePoint" />
            <mxPoint x="80" y="410" as="targetPoint" />
          </mxGeometry>
        </mxCell>
        <mxCell id="WaQflnwVFew0q5h23o7o-308" value="" style="endArrow=block;dashed=1;endFill=0;endSize=12;html=1;rounded=0;entryX=0;entryY=0.5;entryDx=0;entryDy=0;exitX=1;exitY=0.5;exitDx=0;exitDy=0;" edge="1" parent="1" source="WaQflnwVFew0q5h23o7o-282" target="WaQflnwVFew0q5h23o7o-281">
          <mxGeometry width="160" relative="1" as="geometry">
            <mxPoint x="-80" y="410" as="sourcePoint" />
            <mxPoint x="80" y="410" as="targetPoint" />
          </mxGeometry>
        </mxCell>
        <mxCell id="WaQflnwVFew0q5h23o7o-310" value="Use" style="endArrow=open;endSize=12;dashed=1;html=1;rounded=0;entryX=1;entryY=0.5;entryDx=0;entryDy=0;" edge="1" parent="1" source="WaQflnwVFew0q5h23o7o-11" target="WaQflnwVFew0q5h23o7o-281">
          <mxGeometry width="160" relative="1" as="geometry">
            <mxPoint x="180" y="390" as="sourcePoint" />
            <mxPoint x="340" y="390" as="targetPoint" />
          </mxGeometry>
        </mxCell>
        <mxCell id="WaQflnwVFew0q5h23o7o-311" value="" style="endArrow=block;dashed=1;endFill=0;endSize=12;html=1;rounded=0;exitX=1.004;exitY=0.117;exitDx=0;exitDy=0;exitPerimeter=0;entryX=-0.008;entryY=0.673;entryDx=0;entryDy=0;entryPerimeter=0;" edge="1" parent="1" source="WaQflnwVFew0q5h23o7o-286" target="WaQflnwVFew0q5h23o7o-281">
          <mxGeometry width="160" relative="1" as="geometry">
            <mxPoint x="130" y="300" as="sourcePoint" />
            <mxPoint x="240" y="345" as="targetPoint" />
          </mxGeometry>
        </mxCell>
        <mxCell id="WaQflnwVFew0q5h23o7o-312" value="Payloads" style="text;html=1;align=left;verticalAlign=top;spacingTop=-4;fontSize=10;fontFamily=Verdana" vertex="1" parent="1">
          <mxGeometry x="-280" y="232.25" width="130" height="20" as="geometry" />
        </mxCell>
        <mxCell id="WaQflnwVFew0q5h23o7o-313" value="" style="endArrow=block;dashed=1;endFill=0;endSize=12;html=1;rounded=0;entryX=0.938;entryY=0.057;entryDx=0;entryDy=0;exitX=0.56;exitY=1.128;exitDx=0;exitDy=0;entryPerimeter=0;exitPerimeter=0;" edge="1" parent="1" source="WaQflnwVFew0q5h23o7o-86" target="WaQflnwVFew0q5h23o7o-92">
          <mxGeometry width="160" relative="1" as="geometry">
            <mxPoint x="271" y="783" as="sourcePoint" />
            <mxPoint x="100" y="704" as="targetPoint" />
          </mxGeometry>
        </mxCell>
        <mxCell id="WaQflnwVFew0q5h23o7o-315" value="" style="shape=folder;fontStyle=1;spacingTop=10;tabWidth=194;tabHeight=22;tabPosition=left;html=1;rounded=0;shadow=0;comic=0;labelBackgroundColor=none;strokeWidth=1;fillColor=none;fontFamily=Verdana;fontSize=10;align=center;" vertex="1" parent="1">
          <mxGeometry x="-309.5" y="77" width="2009.5" height="843" as="geometry" />
        </mxCell>
      </root>
    </mxGraphModel>
  </diagram>
</mxfile>
